<?xml version="1.0" encoding="UTF-8" standalone="no"?>
<!-- Created with Inkscape (http://www.inkscape.org/) -->

<svg
   width="512mm"
   height="512mm"
   viewBox="0 0 512 512"
   version="1.1"
   id="svg1"
   sodipodi:docname="logo3.svg"
   inkscape:version="1.4 (e7c3feb100, 2024-10-09)"
   xmlns:inkscape="http://www.inkscape.org/namespaces/inkscape"
   xmlns:sodipodi="http://sodipodi.sourceforge.net/DTD/sodipodi-0.dtd"
   xmlns="http://www.w3.org/2000/svg"
   xmlns:svg="http://www.w3.org/2000/svg">
  <sodipodi:namedview
     id="namedview1"
     pagecolor="#ffffff"
     bordercolor="#000000"
     borderopacity="0.25"
     inkscape:showpageshadow="2"
     inkscape:pageopacity="0.0"
     inkscape:pagecheckerboard="0"
     inkscape:deskcolor="#d1d1d1"
     inkscape:document-units="mm"
     showgrid="true"
     inkscape:zoom="0.35355339"
     inkscape:cx="893.78297"
     inkscape:cy="977.22157"
     inkscape:window-width="1516"
     inkscape:window-height="812"
     inkscape:window-x="0"
     inkscape:window-y="0"
     inkscape:window-maximized="1"
     inkscape:current-layer="svg1"
     showguides="true">
    <inkscape:grid
       id="grid1"
       units="cm"
       originx="0"
       originy="0"
       spacingx="21.999998"
       spacingy="21.999998"
       empcolor="#0099e5"
       empopacity="0.30196078"
       color="#0099e5"
       opacity="0.14901961"
       empspacing="5"
       enabled="true"
       visible="true" />
    <sodipodi:guide
       position="279.13629,142.31279"
       orientation="0,-1"
       id="guide2"
       inkscape:locked="false" />
  </sodipodi:namedview>
  <defs
     id="defs1" />
  <path
     style="fill:#000000;fill-opacity:1;stroke:none;stroke-width:0;stroke-linecap:square;stroke-linejoin:miter;stroke-dasharray:none;stroke-opacity:0;paint-order:markers fill stroke"
     d="m 229.93163,123.32616 c -72.59776,1.1e-4 -131.53502,55.71767 -131.53516,124.49805 v 0.002 c 0.16742,64.5367 52.41974,118.22631 120.28907,123.73828 l 0.60351,-0.11523 c 48.44601,-23.82041 67.40684,-58.06915 72.86914,-70.73633 4.70622,-10.91379 5.67969,-29.40528 2.69922,-45.86133 -1.49023,-8.22802 -3.97879,-15.9351 -7.60547,-21.90625 -3.62667,-5.97114 -8.46747,-10.25959 -14.57031,-11.27343 -8.88945,-1.47678 -15.71666,1.39235 -19.08008,6.44531 -3.36341,5.05296 -3.1439,12.12609 1.35938,18.53125 0.68613,0.9759 1.80489,1.76386 3.22656,2.55664 1.42167,0.79278 3.14329,1.5343 4.97461,2.11133 3.66265,1.15405 7.75052,1.76092 10.80469,0.31054 2.24226,-1.0648 3.77062,-2.52336 4.53711,-4.2539 0.76649,-1.73055 0.73645,-3.65442 0.16797,-5.51953 -0.78186,-2.56519 -2.74153,-5.02265 -5.07618,-7.34766 0.59196,0.27524 0.92092,0.29023 1.58594,0.67969 3.95515,2.31623 8.92444,6.70817 11.84766,14.2832 2.40836,6.24088 0.75345,19.52636 -6.9707,31.12305 -7.72416,11.59669 -21.28657,21.64647 -42.52735,22.21679 -21.11103,0.56685 -35.80453,-6.15106 -45.33008,-17.19531 -9.52554,-11.04425 -13.89648,-26.53572 -13.89648,-43.61328 0,-34.04515 22.02992,-59.92812 59.32031,-61.99805 33.66917,-1.86891 54.00836,14.09901 66.07227,32.5 6.03195,9.2005 9.95822,19.01534 12.33008,27.46289 2.37185,8.44756 3.17998,15.57578 3.0371,19.16993 -0.13977,3.51604 0.49415,11.50155 -1.07617,22.24218 -1.57031,10.74064 -5.32979,24.09663 -14.23828,37.875 -16.66949,25.78199 -55.21803,42.74923 -78.42383,50.53907 l 0.27149,2.24023 c 1.42273,0.11836 2.84739,0.21658 4.27344,0.29102 h 0.0605 c 72.59801,-1.6e-4 131.53535,-55.71752 131.5352,-124.4981 -1.5e-4,-68.78038 -58.9374,-124.49794 -131.53516,-124.49805 z m 0,2.30469 c 71.4189,1e-4 129.23033,54.73019 129.23047,122.19336 1.5e-4,67.00554 -57.04596,121.38902 -127.79492,122.125 23.63667,-8.46321 58.17932,-24.48375 74.31836,-49.44531 9.11696,-14.10081 12.97697,-27.80136 14.58398,-38.79297 1.60701,-10.99161 0.97562,-19.41443 1.09766,-22.48438 0.16071,-4.04287 -0.69606,-11.24777 -3.12109,-19.88476 -2.42504,-8.63699 -6.42671,-18.65825 -12.61915,-28.10352 -12.38486,-18.89054 -33.67722,-35.44946 -68.1289,-33.53711 -38.31231,2.12666 -61.49805,29.24778 -61.49805,64.29883 0,17.47056 4.4619,33.5327 14.45508,45.11914 9.99318,11.58644 25.50415,18.57499 47.13672,17.99414 21.94568,-0.58925 36.30874,-11.11428 44.38672,-23.24219 8.07797,-12.1279 10.10146,-25.7168 7.20117,-33.23242 -3.13198,-8.116 -8.50606,-12.90882 -12.83399,-15.44336 -2.16396,-1.26726 -4.05143,-1.97618 -5.36718,-2.27734 -0.65788,-0.15058 -1.06227,-0.28252 -1.74805,-0.10156 -0.17144,0.0452 -0.39663,0.11589 -0.64062,0.36523 -0.244,0.24935 -0.39789,0.74755 -0.3379,1.08985 0.11999,0.68459 0.43398,0.80601 0.66407,0.97851 3.78404,2.83704 6.65143,6.32472 7.55078,9.27539 0.44968,1.47534 0.43362,2.7719 -0.0723,3.91406 -0.50588,1.14216 -1.53631,2.20996 -3.41797,3.10352 -2.01691,0.9578 -5.74951,0.63656 -9.12109,-0.42578 -1.68579,-0.53117 -3.28423,-1.22277 -4.54492,-1.92578 -1.26069,-0.70302 -2.18509,-1.47401 -2.46289,-1.86914 -4.0726,-5.7926 -4.12181,-11.7307 -1.32813,-15.92774 2.79369,-4.19704 8.54881,-6.81749 16.78516,-5.44922 5.26204,0.87416 9.56361,4.58123 12.97461,10.19727 3.411,5.61603 5.85398,13.08777 7.30859,21.11914 2.90924,16.06274 1.82225,34.40699 -2.54687,44.53906 -5.28155,12.248 -23.82671,45.89315 -71.47461,69.42578 -66.60781,-5.56021 -117.69916,-58.20702 -117.86522,-121.40234 v -0.002 c 0,-6.6e-4 1e-5,-0.001 0,-0.002 0.002,-67.46136 57.81296,-122.18935 129.23048,-122.18945 z"
     id="path3-2" />
  <g
     id="path1"
     style="fill:#5471fc;fill-opacity:1;stroke:#340dcb;stroke-width:0;stroke-linecap:square;stroke-linejoin:miter;stroke-dasharray:none;stroke-opacity:0;paint-order:markers fill stroke"
     transform="translate(10.785137,-3.4082142)">
    <path
       style="fill:#5471fc;fill-opacity:1;stroke:#340dcb;stroke-width:0;stroke-linecap:square;stroke-linejoin:miter;stroke-dasharray:none;stroke-opacity:0;paint-order:markers fill stroke"
       d="M 262.38295,140.65446 A 130.38294,123.3457 0 0 0 132.00021,263.99991 130.38294,123.3457 0 0 0 251.23066,386.59087 c 48.16031,-23.67993 66.94256,-57.68731 72.32013,-70.15799 9.07534,-21.04587 4.12314,-73.6725 -18.60661,-77.4485 -17.1258,-2.84505 -25.16505,10.97861 -16.58917,23.17636 1.92786,2.74207 12.49683,7.0079 17.56792,4.59972 8.24784,-3.91672 3.96748,-12.38403 -3.86488,-18.25625 -2.19129,-1.6429 12.44289,1.03456 18.49809,16.7256 5.30865,13.7565 -7.3567,53.74766 -50.54316,54.90724 -42.7436,1.1477 -60.40924,-27.41348 -60.40924,-61.96159 0,-34.5481 22.60789,-61.0498 60.40924,-63.14809 68.12085,-3.78127 83.26156,65.05543 82.65438,80.32947 -0.26181,6.58599 2.52717,32.81789 -15.49828,60.69707 -16.98089,26.26361 -55.70837,43.17841 -79.02411,51.00515 a 130.38294,123.3457 0 0 0 4.23798,0.28681 A 130.38294,123.3457 0 0 0 392.76569,263.99991 130.38294,123.3457 0 0 0 262.38295,140.65446 Z"
       id="path2" />
    <path
       style="fill:#5471fc;fill-opacity:1;stroke:none;stroke-width:0;stroke-linecap:square;stroke-linejoin:miter;stroke-dasharray:none;stroke-opacity:0;paint-order:markers fill stroke"
       d="M 262.38281,139.50195 C 189.78506,139.50206 130.8478,195.21962 130.84766,264 v 0.002 c 0.16742,64.5367 52.41974,118.22631 120.28906,123.73828 l 0.60351,-0.11523 c 48.44601,-23.82041 67.40684,-58.06915 72.86914,-70.73633 4.70622,-10.91379 5.67969,-29.40528 2.69922,-45.86133 -1.49023,-8.22802 -3.97879,-15.9351 -7.60547,-21.90625 -3.62667,-5.97114 -8.46747,-10.25959 -14.57031,-11.27343 -8.88945,-1.47678 -15.71666,1.39235 -19.08008,6.44531 -3.36341,5.05296 -3.1439,12.12609 1.35938,18.53125 0.68613,0.9759 1.80489,1.76386 3.22656,2.55664 1.42167,0.79278 3.14329,1.5343 4.97461,2.11133 3.66265,1.15405 7.75052,1.76092 10.80469,0.31054 2.24226,-1.0648 3.77062,-2.52336 4.53711,-4.2539 0.76649,-1.73055 0.73645,-3.65442 0.16797,-5.51953 -0.78186,-2.56519 -2.74153,-5.02265 -5.07618,-7.34766 0.59196,0.27524 0.92092,0.29023 1.58594,0.67969 3.95515,2.31623 8.92444,6.70817 11.84766,14.2832 2.40836,6.24088 0.75345,19.52636 -6.9707,31.12305 -7.72416,11.59669 -21.28657,21.64647 -42.52735,22.21679 -21.11103,0.56685 -35.80453,-6.15106 -45.33008,-17.19531 -9.52554,-11.04425 -13.89648,-26.53572 -13.89648,-43.61328 0,-34.04515 22.02992,-59.92812 59.32031,-61.99805 33.66917,-1.86891 54.00836,14.09901 66.07227,32.5 6.03195,9.2005 9.95822,19.01534 12.33008,27.46289 2.37185,8.44756 3.17998,15.57578 3.0371,19.16993 -0.13977,3.51604 0.49415,11.50155 -1.07617,22.24218 -1.57031,10.74064 -5.32979,24.09663 -14.23828,37.875 -16.66949,25.78199 -55.21803,42.74923 -78.42383,50.53907 l 0.27149,2.24023 c 1.42273,0.11836 2.84739,0.21658 4.27344,0.29102 h 0.0605 C 334.98078,388.49794 393.91812,332.78058 393.91797,264 393.91782,195.21962 334.98057,139.50206 262.38281,139.50195 Z m 0,2.30469 c 71.4189,1e-4 129.23033,54.73019 129.23047,122.19336 1.5e-4,67.00554 -57.04596,121.38902 -127.79492,122.125 23.63667,-8.46321 58.17932,-24.48375 74.31836,-49.44531 9.11696,-14.10081 12.97697,-27.80136 14.58398,-38.79297 1.60701,-10.99161 0.97562,-19.41443 1.09766,-22.48438 0.16071,-4.04287 -0.69606,-11.24777 -3.12109,-19.88476 -2.42504,-8.63699 -6.42671,-18.65825 -12.61915,-28.10352 -12.38486,-18.89054 -33.67722,-35.44946 -68.1289,-33.53711 -38.31231,2.12666 -61.49805,29.24778 -61.49805,64.29883 0,17.47056 4.4619,33.5327 14.45508,45.11914 9.99318,11.58644 25.50415,18.57499 47.13672,17.99414 21.94568,-0.58925 36.30874,-11.11428 44.38672,-23.24219 8.07797,-12.1279 10.10146,-25.7168 7.20117,-33.23242 -3.13198,-8.116 -8.50606,-12.90882 -12.83399,-15.44336 -2.16396,-1.26726 -4.05143,-1.97618 -5.36718,-2.27734 -0.65788,-0.15058 -1.06227,-0.28252 -1.74805,-0.10156 -0.17144,0.0452 -0.39663,0.11589 -0.64062,0.36523 -0.244,0.24935 -0.39789,0.74755 -0.3379,1.08985 0.11999,0.68459 0.43398,0.80601 0.66407,0.97851 3.78404,2.83704 6.65143,6.32472 7.55078,9.27539 0.44968,1.47534 0.43362,2.7719 -0.0723,3.91406 -0.50588,1.14216 -1.53631,2.20996 -3.41797,3.10352 -2.01691,0.9578 -5.74951,0.63656 -9.12109,-0.42578 -1.68579,-0.53117 -3.28423,-1.22277 -4.54492,-1.92578 -1.26069,-0.70302 -2.18509,-1.47401 -2.46289,-1.86914 -4.0726,-5.7926 -4.12181,-11.7307 -1.32813,-15.92774 2.79369,-4.19704 8.54881,-6.81749 16.78516,-5.44922 5.26204,0.87416 9.56361,4.58123 12.97461,10.19727 3.411,5.61603 5.85398,13.08777 7.30859,21.11914 2.90924,16.06274 1.82225,34.40699 -2.54687,44.53906 -5.28155,12.248 -23.82671,45.89315 -71.47461,69.42578 C 184.40975,379.84213 133.3184,327.19532 133.15234,264 v -0.002 c 0,-6.6e-4 1e-5,-10e-4 0,-0.002 0.002,-67.46136 57.81296,-122.18935 129.23047,-122.18945 z"
       id="path3" />
  </g>
  <g
     inkscape:label="Layer 1"
     inkscape:groupmode="layer"
     id="layer1" />
</svg>
