<?xml version="1.0" encoding="UTF-8" standalone="no"?>
<!-- Created with Inkscape (http://www.inkscape.org/) -->

<svg
   width="512mm"
   height="512mm"
   viewBox="0 0 512 512"
   version="1.1"
   id="svg1"
   inkscape:export-filename="logo5.png"
   inkscape:export-xdpi="96"
   inkscape:export-ydpi="96"
   inkscape:version="1.4 (e7c3feb100, 2024-10-09)"
   sodipodi:docname="logo5.svg"
   xmlns:inkscape="http://www.inkscape.org/namespaces/inkscape"
   xmlns:sodipodi="http://sodipodi.sourceforge.net/DTD/sodipodi-0.dtd"
   xmlns="http://www.w3.org/2000/svg"
   xmlns:svg="http://www.w3.org/2000/svg">
  <sodipodi:namedview
     id="namedview1"
     pagecolor="#ffffff"
     bordercolor="#000000"
     borderopacity="0.25"
     inkscape:showpageshadow="2"
     inkscape:pageopacity="0.0"
     inkscape:pagecheckerboard="0"
     inkscape:deskcolor="#d1d1d1"
     inkscape:document-units="mm"
     showgrid="true"
     inkscape:export-bgcolor="#ffffffff"
     inkscape:zoom="0.17386018"
     inkscape:cx="770.73429"
     inkscape:cy="759.23079"
     inkscape:window-width="1346"
     inkscape:window-height="755"
     inkscape:window-x="0"
     inkscape:window-y="0"
     inkscape:window-maximized="1"
     inkscape:current-layer="layer1">
    <inkscape:grid
       id="grid1"
       units="cm"
       originx="0"
       originy="0"
       spacingx="21.999998"
       spacingy="21.999998"
       empcolor="#0099e5"
       empopacity="0.30196078"
       color="#0099e5"
       opacity="0.14901961"
       empspacing="5"
       enabled="true"
       visible="true" />
  </sodipodi:namedview>
  <defs
     id="defs1" />
  <g
     inkscape:label="Layer 1"
     inkscape:groupmode="layer"
     id="layer1">
    <path
       id="rect2"
       style="fill:#ff0045;stroke-width:0.58866"
       d="m 162.25003,175.99999 c 0,0 45.41718,0.17252 49.49998,48.40001 4.84239,57.19999 0,0 0,0 1.22209,45.94161 -8.90014,101.19997 16.5,101.19999 49.0292,2e-5 -16.50002,20.43568 -16.5,43.99999 v 0 c 0,0 -49.5,-1.94654 -49.5,-48.4 V 176 c 0,0 2e-5,-1e-5 2e-5,-1e-5 z"
       sodipodi:nodetypes="csssscssc" />
    <path
       id="rect3"
       style="fill:#ff0045;stroke-width:0.58866"
       d="m 211.75001,321.19996 h 98.99996 c -46.60798,0 -49.49998,0 -49.49998,0 l 10e-6,48.40002 h -49.49999 c 0,0 -2e-5,0 -2e-5,-3e-5 v -48.39997 z"
       sodipodi:nodetypes="cscccscc" />
    <path
       id="rect4"
       style="fill:#ff0045;stroke-width:0.58866"
       d="m 261.25,175.99999 h 49.49997 v 1e-5 145.19996 0 h -35.80361 c 0,0 -30.81678,0 -23.1126,0 23.1126,0 9.41623,-95.05211 9.41624,-145.19993 z"
       sodipodi:nodetypes="ccccccssc" />
    <path
       id="rect5"
       style="fill:#ff0045;stroke-width:0.684705"
       d="m 211.75001,127.6 98.99999,0 c 12.41235,0 49.5,0 49.5,48.4 0,22.87147 -7e-5,-3e-5 -7e-5,-3e-5 0,1e-5 9e-5,3e-5 7e-5,3e-5 l -99.00001,-1e-5 c 0,0 -49.49998,1e-5 -49.49998,-48.39999 z"
       sodipodi:nodetypes="ssssscs" />
    <path
       id="rect6"
       style="fill:#ff0045;stroke-width:0.58866"
       d="m 261.25,321.19996 h 49.49997 v 2e-5 c 0,0 3e-5,-21.17498 3e-5,0 0,48.4 -49.5,48.39997 -49.5,48.39997 h -10e-6 v -64.67579 z"
       sodipodi:nodetypes="cccscccc" />
  </g>
</svg>
