<?xml version="1.0" encoding="UTF-8" standalone="no"?>
<!-- Created with Inkscape (http://www.inkscape.org/) -->

<svg
   width="512mm"
   height="512mm"
   viewBox="0 0 512 512"
   version="1.1"
   id="svg1"
   inkscape:version="1.4 (e7c3feb100, 2024-10-09)"
   sodipodi:docname="logo4.svg"
   inkscape:export-filename="logo4.png"
   inkscape:export-xdpi="96"
   inkscape:export-ydpi="96"
   xmlns:inkscape="http://www.inkscape.org/namespaces/inkscape"
   xmlns:sodipodi="http://sodipodi.sourceforge.net/DTD/sodipodi-0.dtd"
   xmlns="http://www.w3.org/2000/svg"
   xmlns:svg="http://www.w3.org/2000/svg">
  <sodipodi:namedview
     id="namedview1"
     pagecolor="#ffffff"
     bordercolor="#000000"
     borderopacity="0.25"
     inkscape:showpageshadow="2"
     inkscape:pageopacity="0.0"
     inkscape:pagecheckerboard="0"
     inkscape:deskcolor="#d1d1d1"
     inkscape:document-units="mm"
     showgrid="false"
     inkscape:zoom="0.17386018"
     inkscape:cx="701.71331"
     inkscape:cy="822.50002"
     inkscape:window-width="1346"
     inkscape:window-height="755"
     inkscape:window-x="0"
     inkscape:window-y="0"
     inkscape:window-maximized="1"
     inkscape:current-layer="layer1"
     inkscape:export-bgcolor="#ffffffff">
    <inkscape:grid
       id="grid1"
       units="cm"
       originx="0"
       originy="0"
       spacingx="21.999998"
       spacingy="21.999998"
       empcolor="#0099e5"
       empopacity="0.30196078"
       color="#0099e5"
       opacity="0.14901961"
       empspacing="5"
       enabled="true"
       visible="false" />
  </sodipodi:namedview>
  <defs
     id="defs1" />
  <g
     inkscape:label="Layer 1"
     inkscape:groupmode="layer"
     id="layer1">
    <path
       id="rect3"
       style="fill:#86cecb;fill-opacity:1;stroke-width:0.594305"
       d="m 150.83977,172.47897 h 101.90044 v 47.9285 H 150.83977 Z"
       sodipodi:nodetypes="ccccc" />
    <path
       id="rect4"
       style="fill:#86cecb;fill-opacity:1;stroke-width:0.594305"
       d="M 150.83975,220.4075 H 201.79 v 143.78545 c 0,0 -50.95023,9.34541 -50.95023,-72.10954 0,-95.85697 -2e-5,-71.67591 -2e-5,-71.67591 z"
       sodipodi:nodetypes="cccsc" />
    <path
       id="rect8"
       style="fill:#ff0045;fill-opacity:1;stroke-width:0.606727"
       d="m 252.74021,172.47897 h 53.10242 v 191.714 c 0,0 -53.1024,0 -53.1024,-47.9285 0,-53.44977 -2e-5,-143.7855 -2e-5,-143.7855 z"
       sodipodi:nodetypes="cccsc" />
    <path
       id="rect9"
       style="fill:#ff0045;fill-opacity:1;stroke-width:0.594305"
       d="m 303.69046,316.26449 h 50.95023 v 47.9285 h -50.95023 z" />
    <path
       id="rect11"
       style="fill:#ff0045;fill-opacity:1;stroke-width:0.594305"
       d="m 303.69046,172.47897 h 50.95023 v 47.9285 h -50.95023 z" />
    <path
       id="rect12"
       style="fill:#ff0045;fill-opacity:1;stroke-width:0.594305"
       d="m 303.69046,268.336 h 50.95023 v 0 z" />
    <path
       id="rect13"
       style="fill:#ff0045;fill-opacity:1;stroke-width:0.594305"
       d="m 303.69046,268.33595 h 50.95025 v 3e-5 h -50.95025 z" />
    <path
       id="rect14"
       style="fill:#ff0045;fill-opacity:1;stroke-width:0.59431"
       d="m 303.69046,253.01631 h 50.95023 v 32.98367 h -50.95023 z" />
    <path
       id="rect15"
       style="fill:#ff0045;fill-opacity:1;stroke-width:0.600376"
       d="m 353.59444,172.47897 c 0,0 51.99649,0 51.99649,33.40669 0,29.62669 0,14.52181 0,44.28177 0,28.71802 -51.99649,18.16855 -51.99649,18.16855 z"
       sodipodi:nodetypes="csscc" />
    <path
       id="rect16"
       style="fill:#ff0045;fill-opacity:1;stroke-width:0.600376"
       d="m 353.59444,268.33595 c 0,0 51.99649,-18.16852 51.99649,21.09895 0,51.89784 0,26.95985 0,33.86256 0,40.89551 -51.99649,40.89547 -51.99649,40.89547 z"
       sodipodi:nodetypes="csscc" />
    <rect
       style="fill:#f9f9f9;stroke-width:0.594305"
       id="rect17"
       width="23.779049"
       height="6.3166413"
       x="76.110466"
       y="184.61842"
       ry="6.5238005e-06" />
    <path
       id="rect18"
       style="fill:#86cecb;fill-opacity:1;stroke-width:0.594305"
       d="m 99.889528,220.40747 c 0,-47.9285 50.950222,-47.9285 50.950222,-47.9285 v 2e-5 47.92848 0 h -50.950222 -2e-5 c 0,0 2e-5,31.49613 2e-5,0 z"
       sodipodi:nodetypes="sccccccs" />
    <rect
       style="fill:#ffffff;stroke-width:0.594305"
       id="rect19"
       width="6.3620615"
       height="47.92849"
       x="246.37817"
       y="172.47899"
       ry="6.5238005e-06" />
  </g>
</svg>
